<?xml version="1.0" encoding="utf-8"?>
<!-- Generator: Adobe Illustrator 26.5.0, SVG Export Plug-In . SVG Version: 6.00 Build 0)  -->
<svg version="1.1" id="Layer_1" xmlns="http://www.w3.org/2000/svg" xmlns:xlink="http://www.w3.org/1999/xlink" x="0px" y="0px"
	 viewBox="0 0 1200 1200" style="enable-background:new 0 0 1200 1200;" xml:space="preserve">
<style type="text/css">
	.st0{fill:#FFFFFF;stroke:#000000;stroke-width:6;stroke-miterlimit:10;}
	.st1{fill:#FFFFFF;stroke:#000000;stroke-width:2;stroke-miterlimit:10;}
	.st2{stroke:#000000;stroke-width:2;stroke-miterlimit:10;}
	.st3{fill:#939393;stroke:#444545;stroke-miterlimit:10;}
	.st4{fill:#565656;stroke:#020202;stroke-miterlimit:10;}
	.st5{fill:#FFFFFF;stroke:#000000;stroke-miterlimit:10;}
	.st6{fill:#EDECAD;}
	.st7{font-family:'MonotypeCorsiva';}
	.st8{font-size:72px;}
</style>
<path class="st0" d="M524.92,700.06h-268.5c-20.94,0-37.92-16.98-37.92-37.92V549.05c0-20.94,16.98-37.92,37.92-37.92h268.5
	c20.94,0,37.92,16.98,37.92,37.92v113.09C562.84,683.08,545.86,700.06,524.92,700.06z"/>
<path class="st1" d="M522.03,605.59h-50.09c-7.35,0-13.3-5.96-13.3-13.3V542.2c0-7.35,5.96-13.3,13.3-13.3h50.09
	c7.35,0,13.3,5.96,13.3,13.3v50.09C535.34,599.64,529.38,605.59,522.03,605.59z"/>
<g>
	<circle class="st2" cx="477.03" cy="551.98" r="13.7"/>
	<circle class="st3" cx="477.08" cy="552.03" r="8.72"/>
	<circle class="st4" cx="477.03" cy="551.98" r="3.51"/>
</g>
<g>
	<circle class="st2" cx="516.43" cy="551.98" r="13.7"/>
	<circle class="st3" cx="516.47" cy="552.03" r="8.72"/>
	<circle class="st4" cx="516.43" cy="551.98" r="3.51"/>
</g>
<circle class="st5" cx="496.99" cy="588.94" r="7.15"/>
<circle class="st6" cx="496.99" cy="588.94" r="3.8"/>
<g>
	<g>
		<path d="M478.96,499.88c-0.03-3.33-0.06-6.65-0.09-9.98c-0.01-0.98-0.86-1.92-1.88-1.88c-1.01,0.05-1.88,0.82-1.88,1.88
			c0.03,3.33,0.06,6.65,0.09,9.98c0.01,0.98,0.86,1.92,1.88,1.88C478.09,501.71,478.97,500.93,478.96,499.88L478.96,499.88z"/>
	</g>
</g>
<g>
	<g>
		<path d="M486.63,502.78c1.3-3.06,2.6-6.12,3.89-9.18c0.21-0.48,0.34-0.91,0.19-1.44c-0.12-0.43-0.46-0.91-0.86-1.12
			c-0.8-0.42-2.16-0.29-2.57,0.67c-1.3,3.06-2.6,6.12-3.89,9.18c-0.21,0.48-0.34,0.91-0.19,1.44c0.12,0.43,0.46,0.91,0.86,1.12
			C484.86,503.88,486.22,503.74,486.63,502.78L486.63,502.78z"/>
	</g>
</g>
<g>
	<g>
		<path d="M470.6,500.78c-1.46-2.99-2.91-5.98-4.37-8.97c-0.43-0.88-1.76-1.19-2.57-0.67c-0.91,0.58-1.13,1.62-0.67,2.57
			c1.46,2.99,2.91,5.98,4.37,8.97c0.43,0.88,1.76,1.19,2.57,0.67C470.83,502.76,471.06,501.72,470.6,500.78L470.6,500.78z"/>
	</g>
</g>
<g>
	<g>
		<path d="M515.12,498.9c-0.03-3.33-0.06-6.65-0.09-9.98c-0.01-0.98-0.86-1.92-1.88-1.88c-1.01,0.05-1.88,0.82-1.88,1.88
			c0.03,3.33,0.06,6.65,0.09,9.98c0.01,0.98,0.86,1.92,1.88,1.88C514.25,500.73,515.13,499.96,515.12,498.9L515.12,498.9z"/>
	</g>
</g>
<g>
	<g>
		<path d="M522.78,501.8c1.3-3.06,2.6-6.12,3.89-9.18c0.21-0.48,0.34-0.91,0.19-1.44c-0.12-0.43-0.46-0.91-0.86-1.12
			c-0.8-0.42-2.16-0.29-2.57,0.67c-1.3,3.06-2.6,6.12-3.89,9.18c-0.21,0.48-0.34,0.91-0.19,1.44c0.12,0.43,0.46,0.91,0.86,1.12
			C521.02,502.9,522.37,502.77,522.78,501.8L522.78,501.8z"/>
	</g>
</g>
<g>
	<g>
		<path d="M506.76,499.8c-1.46-2.99-2.91-5.98-4.37-8.97c-0.43-0.88-1.76-1.19-2.57-0.67c-0.91,0.58-1.13,1.62-0.67,2.57
			c1.46,2.99,2.91,5.98,4.37,8.97c0.43,0.88,1.76,1.19,2.57,0.67C506.99,501.78,507.22,500.75,506.76,499.8L506.76,499.8z"/>
	</g>
</g>
<text transform="matrix(1 0 0 1 591.8799 627.5531)" class="st7 st8">MobPhotography</text>
</svg>
