<?xml version="1.0" encoding="utf-8"?>
<!-- Generator: Adobe Illustrator 26.5.0, SVG Export Plug-In . SVG Version: 6.00 Build 0)  -->
<svg version="1.1" id="Layer_1" xmlns="http://www.w3.org/2000/svg" xmlns:xlink="http://www.w3.org/1999/xlink" x="0px" y="0px"
	 viewBox="0 0 1200 1200" style="enable-background:new 0 0 1200 1200;" xml:space="preserve">
<style type="text/css">
	.st0{fill:#FFFFFF;stroke:#000000;stroke-width:6;stroke-miterlimit:10;}
	.st1{fill:#FFFFFF;stroke:#000000;stroke-width:2;stroke-miterlimit:10;}
	.st2{stroke:#000000;stroke-width:2;stroke-miterlimit:10;}
	.st3{fill:#939393;stroke:#444545;stroke-miterlimit:10;}
	.st4{fill:#565656;stroke:#020202;stroke-miterlimit:10;}
	.st5{fill:#FFFFFF;stroke:#000000;stroke-miterlimit:10;}
	.st6{fill:#EDECAD;}
</style>
<path class="st0" d="M734.25,705.57h-268.5c-20.94,0-37.92-16.98-37.92-37.92V554.55c0-20.94,16.98-37.92,37.92-37.92h268.5
	c20.94,0,37.92,16.98,37.92,37.92v113.09C772.17,688.59,755.19,705.57,734.25,705.57z"/>
<path class="st1" d="M731.37,611.1h-50.09c-7.35,0-13.3-5.96-13.3-13.3v-50.09c0-7.35,5.96-13.3,13.3-13.3h50.09
	c7.35,0,13.3,5.96,13.3,13.3v50.09C744.67,605.14,738.72,611.1,731.37,611.1z"/>
<g>
	<circle class="st2" cx="686.37" cy="557.49" r="13.7"/>
	<circle class="st3" cx="686.42" cy="557.54" r="8.72"/>
	<circle class="st4" cx="686.37" cy="557.49" r="3.51"/>
</g>
<g>
	<circle class="st2" cx="725.76" cy="557.49" r="13.7"/>
	<circle class="st3" cx="725.81" cy="557.54" r="8.72"/>
	<circle class="st4" cx="725.76" cy="557.49" r="3.51"/>
</g>
<circle class="st5" cx="706.32" cy="594.45" r="7.15"/>
<circle class="st6" cx="706.32" cy="594.45" r="3.8"/>
<g>
	<g>
		<path d="M688.29,505.39c-0.03-3.33-0.06-6.65-0.09-9.98c-0.01-0.98-0.86-1.92-1.88-1.88c-1.01,0.05-1.88,0.82-1.88,1.88
			c0.03,3.33,0.06,6.65,0.09,9.98c0.01,0.98,0.86,1.92,1.88,1.88C687.43,507.22,688.3,506.44,688.29,505.39L688.29,505.39z"/>
	</g>
</g>
<g>
	<g>
		<path d="M695.96,508.29c1.3-3.06,2.6-6.12,3.89-9.18c0.21-0.48,0.34-0.91,0.19-1.44c-0.12-0.43-0.46-0.91-0.86-1.12
			c-0.8-0.42-2.16-0.29-2.57,0.67c-1.3,3.06-2.6,6.12-3.89,9.18c-0.21,0.48-0.34,0.91-0.19,1.44c0.12,0.43,0.46,0.91,0.86,1.12
			C694.2,509.38,695.55,509.25,695.96,508.29L695.96,508.29z"/>
	</g>
</g>
<g>
	<g>
		<path d="M679.93,506.28c-1.46-2.99-2.91-5.98-4.37-8.97c-0.43-0.88-1.76-1.19-2.57-0.67c-0.91,0.58-1.13,1.62-0.67,2.57
			c1.46,2.99,2.91,5.98,4.37,8.97c0.43,0.88,1.76,1.19,2.57,0.67C680.17,508.27,680.39,507.23,679.93,506.28L679.93,506.28z"/>
	</g>
</g>
<g>
	<g>
		<path d="M724.45,504.41c-0.03-3.33-0.06-6.65-0.09-9.98c-0.01-0.98-0.86-1.92-1.88-1.88c-1.01,0.05-1.88,0.82-1.88,1.88
			c0.03,3.33,0.06,6.65,0.09,9.98c0.01,0.98,0.86,1.92,1.88,1.88C723.58,506.24,724.46,505.46,724.45,504.41L724.45,504.41z"/>
	</g>
</g>
<g>
	<g>
		<path d="M732.12,507.31c1.3-3.06,2.6-6.12,3.89-9.18c0.21-0.48,0.34-0.91,0.19-1.44c-0.12-0.43-0.46-0.91-0.86-1.12
			c-0.8-0.42-2.16-0.29-2.57,0.67c-1.3,3.06-2.6,6.12-3.89,9.18c-0.21,0.48-0.34,0.91-0.19,1.44c0.12,0.43,0.46,0.91,0.86,1.12
			C730.35,508.41,731.71,508.27,732.12,507.31L732.12,507.31z"/>
	</g>
</g>
<g>
	<g>
		<path d="M716.09,505.31c-1.46-2.99-2.91-5.98-4.37-8.97c-0.43-0.88-1.76-1.19-2.57-0.67c-0.91,0.58-1.13,1.62-0.67,2.57
			c1.46,2.99,2.91,5.98,4.37,8.97c0.43,0.88,1.76,1.19,2.57,0.67C716.32,507.29,716.55,506.25,716.09,505.31L716.09,505.31z"/>
	</g>
</g>
</svg>
